<?xml version="1.0" encoding="iso-8859-1"?>
<!-- Generator: Adobe Illustrator 21.0.0, SVG Export Plug-In . SVG Version: 6.00 Build 0)  -->
<svg xmlns="http://www.w3.org/2000/svg" 
	xmlns:xlink="http://www.w3.org/1999/xlink" version="1.1" id="Capa_1" x="0px" y="0px" viewBox="0 0 512 512" style="enable-background:new 0 0 512 512;" xml:space="preserve" width="512" height="512">
	<path style="fill-rule:evenodd;clip-rule:evenodd;fill:#DB5C65;" d="M70.634,198.262h370.731c17.316,0,31.483,14.167,31.483,31.482  v159.173c0,17.314-14.167,31.481-31.483,31.481H70.634c-17.315,0-31.481-14.167-31.481-31.481V229.744  C39.152,212.429,53.318,198.262,70.634,198.262z"/>
	<path style="fill-rule:evenodd;clip-rule:evenodd;fill:#FA969D;" d="M389.734,420.398V48.408c0-21.125-17.283-38.408-38.408-38.408  H160.673c-21.125,0-38.408,17.283-38.408,38.408v371.99H389.734z"/>
	<path style="fill-rule:evenodd;clip-rule:evenodd;fill:#DB5C65;" d="M389.734,420.398v-59.942c0-15.93-13.033-28.963-28.963-28.963  H151.227c-15.93,0-28.963,13.033-28.963,28.963v59.942H389.734z"/>
	<rect x="95.064" y="420.398" style="fill-rule:evenodd;clip-rule:evenodd;fill:#A6AFBE;" width="54.4" height="81.602"/>
	<rect x="362.535" y="420.398" style="fill-rule:evenodd;clip-rule:evenodd;fill:#A6AFBE;" width="54.4" height="81.602"/>
	<g>
		<path style="fill-rule:evenodd;clip-rule:evenodd;" d="M441.365,188.262h-41.631V48.408C399.734,21.716,378.019,0,351.326,0   H160.673c-26.692,0-48.408,21.716-48.408,48.408v139.854H70.634c-22.873,0-41.481,18.609-41.481,41.482v159.173   c0,22.873,18.608,41.481,41.481,41.481h14.431V502c0,5.522,4.478,10,10,10h54.4c5.523,0,10-4.478,10-10v-71.602h193.07V502   c0,5.522,4.478,10,10,10h54.4c5.523,0,10-4.478,10-10v-71.602h14.43c22.873,0,41.483-18.608,41.483-41.481V229.744   C482.848,206.871,464.238,188.262,441.365,188.262z M132.265,48.408c0-15.664,12.744-28.408,28.408-28.408h190.653   c15.664,0,28.408,12.744,28.408,28.408v278.028c-5.616-3.143-12.082-4.943-18.963-4.943H296c-5.523,0-10,4.478-10,10   c0,5.522,4.477,10,10,10h64.771c10.456,0,18.963,8.507,18.963,18.963v49.942h-17.199h-213.07h-17.2v-49.942   c0-10.456,8.507-18.963,18.963-18.963H216c5.522,0,10-4.478,10-10c0-5.522-4.478-10-10-10h-64.773   c-6.881,0-13.347,1.8-18.963,4.943V48.408z M49.152,388.917V229.744c0-11.846,9.637-21.482,21.481-21.482h41.631v152.194v49.942   h-17.2H70.634C58.789,410.398,49.152,400.762,49.152,388.917z M139.465,492h-34.4v-61.602h17.2h17.2V492z M406.935,492h-34.4   v-61.602h17.199h17.201V492z M462.848,388.917c0,11.845-9.637,21.481-21.483,21.481h-24.43h-17.201v-49.942V208.262h41.631   c11.846,0,21.483,9.637,21.483,21.482V388.917z"/>
		<path style="fill-rule:evenodd;clip-rule:evenodd;" d="M256,341.493c5.508,0,10-4.492,10-10.001c0-5.508-4.492-10-10-10   c-5.508,0-10,4.492-10,10C246,337.001,250.492,341.493,256,341.493z"/>
	</g>
</svg>
